<svg width="18" height="20" viewBox="0 0 18 20" fill="none" xmlns="http://www.w3.org/2000/svg">
<g clip-path="url(#clip0_703_33561)">
<mask id="mask0_703_33561" style="mask-type:luminance" maskUnits="userSpaceOnUse" x="0" y="0" width="18" height="20">
<path d="M18 0H0V20H18V0Z" fill="white"/>
</mask>
<g mask="url(#mask0_703_33561)">
<path d="M9 18.9582C4.5525 18.9582 0.9375 14.9415 0.9375 9.99984C0.9375 8.03317 1.5 6.1665 2.565 4.59984C2.7525 4.32484 3.105 4.27484 3.3525 4.48317C3.6 4.6915 3.6525 5.08317 3.465 5.35817C2.55 6.69984 2.0625 8.30817 2.0625 9.99984C2.0625 14.2498 5.175 17.7082 9 17.7082C12.825 17.7082 15.9375 14.2498 15.9375 9.99984C15.9375 5.74984 12.825 2.2915 9 2.2915C8.6925 2.2915 8.4375 2.00817 8.4375 1.6665C8.4375 1.32484 8.6925 1.0415 9 1.0415C13.4475 1.0415 17.0625 5.05817 17.0625 9.99984C17.0625 14.9415 13.4475 18.9582 9 18.9582Z" fill="#155EEF"/>
<path d="M9 16.4582C5.7975 16.4582 3.1875 13.5582 3.1875 9.99984C3.1875 9.65817 3.4425 9.37484 3.75 9.37484C4.0575 9.37484 4.3125 9.65817 4.3125 9.99984C4.3125 12.8748 6.4125 15.2082 9 15.2082C11.5875 15.2082 13.6875 12.8748 13.6875 9.99984C13.6875 7.12484 11.5875 4.7915 9 4.7915C8.6925 4.7915 8.4375 4.50817 8.4375 4.1665C8.4375 3.82484 8.6925 3.5415 9 3.5415C12.2025 3.5415 14.8125 6.4415 14.8125 9.99984C14.8125 13.5582 12.2025 16.4582 9 16.4582Z" fill="#155EEF"/>
<path d="M9.5625 13.9167C9.255 13.9167 9 13.6333 9 13.2917C9 12.95 9.255 12.6667 9.5625 12.6667C10.905 12.6667 12 11.45 12 9.95833C12 8.46667 10.905 7.25 9.5625 7.25C9.255 7.25 9 6.96667 9 6.625C9 6.28333 9.255 6 9.5625 6C11.5275 6 13.125 7.775 13.125 9.95833C13.125 12.1417 11.5275 13.9167 9.5625 13.9167Z" fill="#155EEF"/>
</g>
</g>
<defs>
<clipPath id="clip0_703_33561">
<rect width="18" height="20" fill="white"/>
</clipPath>
</defs>
</svg>
