<svg width="28" height="28" viewBox="0 0 28 28" fill="none" xmlns="http://www.w3.org/2000/svg">
<path d="M21.0874 1.81299L25.9559 6.88799V26.187H7.76904V26.25H26.018V6.95186L21.0874 1.81299Z" fill="#909090"/>
<path d="M21.0272 1.75H7.70703V26.187H25.956V6.88887L21.0272 1.75Z" fill="#F4F4F4"/>
<path d="M7.57318 3.0625H1.98193V9.03612H19.5694V3.0625H7.57318Z" fill="#7A7B7C"/>
<path d="M19.6631 8.93454H2.0957V2.95654H19.6631V8.93454Z" fill="#DD2025"/>
<path d="M7.92048 3.96733H6.77686V8.16733H7.67636V6.75071L7.87498 6.76208C8.06804 6.75942 8.25934 6.72483 8.44111 6.65971C8.6009 6.60545 8.74776 6.51876 8.87248 6.40508C9.00037 6.29784 9.10086 6.16166 9.16561 6.00783C9.25419 5.75296 9.28556 5.4817 9.25748 5.21333C9.25249 5.02158 9.21887 4.83165 9.15773 4.64983C9.10263 4.51841 9.02071 4.39995 8.9172 4.30201C8.81369 4.20407 8.69087 4.12883 8.55661 4.08108C8.44086 4.03821 8.3209 4.00771 8.19873 3.99008C8.10645 3.97505 8.01311 3.96745 7.91961 3.96733M7.75423 5.97458H7.67636V4.67958H7.84523C7.91976 4.67421 7.99455 4.68565 8.06407 4.71306C8.13358 4.74047 8.19605 4.78316 8.24686 4.83796C8.35213 4.97884 8.40838 5.15033 8.40698 5.32621C8.40698 5.54146 8.40698 5.73658 8.21273 5.87396C8.07282 5.95102 7.91351 5.98656 7.75423 5.97458ZM10.9664 3.95596C10.8692 3.95596 10.7747 3.96296 10.7082 3.96558L10.5 3.97083H9.81748V8.17083H10.6207C10.9277 8.17873 11.2332 8.12671 11.5202 8.01771C11.7513 7.92644 11.9559 7.77874 12.1152 7.58808C12.2714 7.39659 12.3829 7.1727 12.4416 6.93271C12.5106 6.66139 12.5441 6.38227 12.5414 6.10233C12.5585 5.77172 12.5329 5.44028 12.4652 5.11621C12.4005 4.87794 12.2806 4.65823 12.1152 4.47483C11.9856 4.32653 11.826 4.20726 11.6471 4.12483C11.4938 4.05378 11.3325 4.00149 11.1667 3.96908C11.1008 3.95827 11.034 3.9533 10.9672 3.95421M10.808 7.39908H10.7205V4.71808H10.7319C10.9122 4.69722 11.0948 4.72978 11.2569 4.81171C11.3756 4.90649 11.4723 5.02591 11.5404 5.16171C11.6138 5.30463 11.6562 5.46149 11.6646 5.62196C11.6725 5.81446 11.6646 5.97196 11.6646 6.10233C11.6678 6.25251 11.6582 6.40268 11.6357 6.55121C11.6082 6.70351 11.5584 6.85093 11.4879 6.98871C11.4082 7.11719 11.2994 7.22511 11.1702 7.30371C11.0624 7.37371 10.9345 7.4063 10.8062 7.39646M15.2512 3.97083H13.125V8.17083H14.0245V6.50483H15.162V5.72433H14.0245V4.75133H15.2495V3.97083" fill="#464648"/>
<path d="M19.0586 17.7233C19.0586 17.7233 21.8481 17.2176 21.8481 18.1704C21.8481 19.1233 20.12 18.7357 19.0586 17.7233ZM16.9962 17.7959C16.553 17.8936 16.121 18.037 15.7073 18.2238L16.0573 17.4363C16.4073 16.6488 16.7705 15.5752 16.7705 15.5752C17.1871 16.2788 17.6731 16.9389 18.2212 17.5457C17.8086 17.6072 17.3996 17.6913 16.9962 17.7977V17.7959ZM15.892 12.1084C15.892 11.2781 16.1606 11.0514 16.3697 11.0514C16.5788 11.0514 16.8142 11.1521 16.8221 11.8731C16.7539 12.598 16.6021 13.3127 16.3697 14.0028C16.0504 13.4238 15.8855 12.7723 15.8911 12.1111L15.892 12.1084ZM11.8241 21.3099C10.9683 20.7981 13.6187 19.2222 14.0991 19.1714C14.0965 19.1723 12.7201 21.8454 11.8241 21.3099ZM22.6627 18.2833C22.654 18.1958 22.5752 17.2272 20.8515 17.2683C20.133 17.2557 19.4147 17.3064 18.7051 17.4197C18.0172 16.7273 17.4252 15.946 16.9446 15.0966C17.2472 14.221 17.4305 13.3086 17.4897 12.3841C17.4643 11.3341 17.2132 10.7321 16.4082 10.7408C15.6032 10.7496 15.486 11.4539 15.5918 12.5022C15.6955 13.2066 15.8911 13.8944 16.1737 14.5479C16.1737 14.5479 15.8018 15.7056 15.3101 16.8571C14.8183 18.0086 14.4823 18.6123 14.4823 18.6123C13.6271 18.8904 12.8221 19.304 12.098 19.8373C11.377 20.5084 11.0838 21.0238 11.4636 21.5392C11.7908 21.9837 12.9362 22.0843 13.96 20.7429C14.503 20.0494 14.9999 19.321 15.4475 18.5624C15.4475 18.5624 17.0085 18.1346 17.4941 18.0173C17.9797 17.9001 18.5668 17.8073 18.5668 17.8073C18.5668 17.8073 19.9922 19.2414 21.3668 19.1907C22.7415 19.1399 22.675 18.3691 22.6662 18.2851" fill="#DD2025"/>
<path d="M20.96 1.81738V6.95626H25.8888L20.96 1.81738Z" fill="#909090"/>
<path d="M21.0273 1.75V6.88888H25.9562L21.0273 1.75Z" fill="#F4F4F4"/>
<path d="M7.8531 3.89995H6.70947V8.09995H7.61247V6.6842L7.81197 6.69557C8.00504 6.69291 8.19633 6.65832 8.3781 6.5932C8.53789 6.53894 8.68475 6.45226 8.80947 6.33857C8.93641 6.23104 9.03598 6.09488 9.09997 5.94132C9.18856 5.68645 9.21993 5.41519 9.19185 5.14682C9.18686 4.95507 9.15324 4.76514 9.0921 4.58332C9.037 4.45191 8.95508 4.33344 8.85156 4.2355C8.74805 4.13757 8.62524 4.06232 8.49097 4.01457C8.37469 3.97129 8.25414 3.94049 8.13135 3.9227C8.03906 3.90767 7.94572 3.90006 7.85222 3.89995M7.68685 5.9072H7.60897V4.6122H7.77872C7.85326 4.60682 7.92804 4.61827 7.99756 4.64568C8.06708 4.67309 8.12954 4.71577 8.18035 4.77057C8.28563 4.91146 8.34187 5.08295 8.34047 5.25882C8.34047 5.47407 8.34047 5.6692 8.14622 5.80657C8.00632 5.88364 7.847 5.9183 7.68772 5.90632M10.899 3.88857C10.8018 3.88857 10.7073 3.89557 10.6408 3.8982L10.4352 3.90345H9.75272V8.10345H10.556C10.8629 8.11134 11.1684 8.05933 11.4555 7.95032C11.6866 7.85906 11.8911 7.71135 12.0505 7.5207C12.2066 7.32921 12.3181 7.10532 12.3768 6.86532C12.4459 6.59401 12.4794 6.31489 12.4766 6.03495C12.4937 5.70433 12.4681 5.37289 12.4005 5.04882C12.3357 4.81055 12.2158 4.59085 12.0505 4.40745C11.9208 4.25915 11.7613 4.13988 11.5823 4.05745C11.4291 3.9864 11.2678 3.9341 11.102 3.9017C11.036 3.89089 10.9693 3.88591 10.9025 3.88682M10.7432 7.3317H10.6557V4.6507H10.6671C10.8475 4.62984 11.03 4.66239 11.1921 4.74432C11.3108 4.83911 11.4075 4.95852 11.4756 5.09432C11.5491 5.23724 11.5914 5.3941 11.5998 5.55457C11.6077 5.74707 11.5998 5.90457 11.5998 6.03495C11.6031 6.18512 11.5934 6.3353 11.571 6.48382C11.5434 6.63613 11.4936 6.78355 11.4231 6.92132C11.3434 7.04981 11.2346 7.15773 11.1055 7.23632C10.9976 7.30633 10.8697 7.33892 10.7415 7.32907M15.1838 3.90345H13.0576V8.10345H13.9571V6.43745H15.0946V5.65695H13.9571V4.68395H15.1821V3.90345" fill="white"/>
</svg>
